<svg id="Camada_1" data-name="Camada 1" xmlns="http://www.w3.org/2000/svg" viewBox="0 0 483.11 480.51"><defs><style>.cls-1{fill:#f28a19;}</style></defs><title>logo</title><path class="cls-1" d="M235.55,341.5V522.68H179.39V43.33h131.7q76.89,0,119.17,37.44T472.55,186.4q0,68.19-47,111.65T298.73,341.5Zm0-247.36V290.69h58.83q58.17,0,88.75-26.57t30.59-75.05q0-94.92-112.32-94.93Z" transform="translate(-179.39 -43.33)"/><path class="cls-1" d="M660.54,275.14v248.7H181.2V467.68H609.73V275.14Z" transform="translate(-179.39 -43.33)"/><path class="cls-1" d="M662.5,44.39V523.73H530.13q-253.38,0-253.38-233.65,0-111,70.36-178.34T535.48,44.39ZM606.34,472.92V95.2H534.81q-94.27,0-146.75,50.47T335.58,288.74q0,184.18,195.88,184.18Z" transform="translate(-179.39 -43.33)"/><path class="cls-1" d="M487.24,347h20.15l43.08,95.57q2.49,5.56,6.62,16.88h.57a122.64,122.64,0,0,1,6.34-16.5L606.21,347h21.3V484.58H612V392.47q0-18.71.77-27h-.39a82,82,0,0,1-4.12,14.1l-46.92,105h-7.87l-47-105.73a85.5,85.5,0,0,1-4.13-13.34h-.38q1.35,15.83,1.34,26.77v92.3h-16Z" transform="translate(-179.39 -43.33)"/></svg>